<?xml version="1.0" encoding="UTF-8"?>
<svg width="180px" height="100px" viewBox="0 0 180 100" version="1.1" xmlns="http://www.w3.org/2000/svg" xmlns:xlink="http://www.w3.org/1999/xlink">
    <!-- Generator: Sketch 46.2 (44496) - http://www.bohemiancoding.com/sketch -->
    <title>Eightshift</title>
    <desc>Created with Sketch.</desc>
    <defs></defs>
    <g id="00-Coming-soon" stroke="none" stroke-width="1" fill="none" fill-rule="evenodd">
        <g id="Artboard" transform="translate(-593.000000, -295.000000)" fill="#000000">
            <g id="Eightshift" transform="translate(593.000000, 295.000000)">
                <path d="M16,4 C9.372583,4 4,9.372583 4,16 L4,84 C4,90.627417 9.372583,96 16,96 L164,96 C170.627417,96 176,90.627417 176,84 L176,16 C176,9.372583 170.627417,4 164,4 L16,4 Z M16,0 L164,0 C172.836556,0 180,7.163444 180,16 L180,84 C180,92.836556 172.836556,100 164,100 L16,100 C7.163444,100 0,92.836556 0,84 L0,16 C0,7.163444 7.163444,0 16,0 Z" id="Rectangle" fill-rule="nonzero"></path>
                <path d="M31.05,83.988 C23.046,83.988 18,80.334 18,74.36 C18,70.648 20.146,68.212 23.452,66.878 C20.436,65.486 18.696,63.166 18.696,59.512 C18.696,53.364 23.742,50 31.05,50 C38.358,50 43.404,53.132 43.404,59.512 C43.404,63.166 41.606,65.486 38.59,66.878 C41.954,68.212 44.1,70.648 44.1,74.36 C44.1,80.334 38.764,83.988 31.05,83.988 Z M31.05,79.58 C35.4,79.58 38.822,78.13 38.822,74.186 C38.822,70.242 35.4,68.792 31.05,68.792 C26.7,68.792 23.278,70.242 23.278,74.186 C23.278,78.13 26.7,79.58 31.05,79.58 Z M31.05,64.964 C35.632,64.964 38.242,63.572 38.242,59.686 C38.242,55.51 35.226,54.408 31.05,54.408 C26.874,54.408 23.858,55.51 23.858,59.686 C23.858,63.572 26.468,64.964 31.05,64.964 Z" id="8"></path>
            </g>
        </g>
    </g>
</svg>