<svg width="180" height="100" xmlns="http://www.w3.org/2000/svg"><g fill="#000" fill-rule="evenodd"><path d="M16 4C9.373 4 4 9.373 4 16v68c0 6.627 5.373 12 12 12h148c6.627 0 12-5.373 12-12V16c0-6.627-5.373-12-12-12H16zm0-4h148c8.837 0 16 7.163 16 16v68c0 8.837-7.163 16-16 16H16c-8.837 0-16-7.163-16-16V16C0 7.163 7.163 0 16 0z" fill-rule="nonzero"/><path d="M31.05 83.988c-8.004 0-13.05-3.654-13.05-9.628 0-3.712 2.146-6.148 5.452-7.482-3.016-1.392-4.756-3.712-4.756-7.366 0-6.148 5.046-9.512 12.354-9.512 7.308 0 12.354 3.132 12.354 9.512 0 3.654-1.798 5.974-4.814 7.366 3.364 1.334 5.51 3.77 5.51 7.482 0 5.974-5.336 9.628-13.05 9.628zm0-4.408c4.35 0 7.772-1.45 7.772-5.394s-3.422-5.394-7.772-5.394-7.772 1.45-7.772 5.394S26.7 79.58 31.05 79.58zm0-14.616c4.582 0 7.192-1.392 7.192-5.278 0-4.176-3.016-5.278-7.192-5.278s-7.192 1.102-7.192 5.278c0 3.886 2.61 5.278 7.192 5.278z"/></g></svg>